<?xml version="1.0" encoding="utf-8"?>
<!-- Generator: Adobe Illustrator 16.0.3, SVG Export Plug-In . SVG Version: 6.00 Build 0)  -->
<!DOCTYPE svg PUBLIC "-//W3C//DTD SVG 1.1//EN" "http://www.w3.org/Graphics/SVG/1.1/DTD/svg11.dtd">
<svg version="1.1"
	 id="Layer_1" image-rendering="optimizeQuality" text-rendering="geometricPrecision" shape-rendering="geometricPrecision"
	 xmlns="http://www.w3.org/2000/svg" xmlns:xlink="http://www.w3.org/1999/xlink" x="0px" y="0px" width="1024px" height="1024px"
	 viewBox="0 0 1024 1024" enable-background="new 0 0 1024 1024" xml:space="preserve">
<title>user_headset icon</title>
<desc>user_headset icon from the IconExperience.com O-Collection. Copyright by INCORS GmbH (www.incors.com).</desc>
<path id="curve2" fill="#8FCAE7" d="M832,847c0,81-192,113-320,113s-320-32-320-112.9c0-176,58.2-202.9,166.3-283.5
	c44.5,28.1,97.2,44.4,153.7,44.4c13.8,0,27.4-1,40.7-2.9c7.5,1.9,15.3,2.9,23.3,2.9c29.8,0,56.8-13.7,74.5-35.4
	c5.2-2.9,10.2-5.9,15.2-9C773.899,644.3,832,671,832,847z"/>
<path id="curve1" fill="#8FCAE7" d="M502.4,573.699c-84-3.1-157.8-46.6-202.2-111.5C312.4,450.5,320,434.1,320,416V224
	c0-5.4-0.7-10.8-2-16c39.8-69,113.5-112,194-112s154.2,43,194,112c-1.3,5.2-2,10.6-2,16v192c0,1.399,0,2.8,0.101,4.3
	c-7.4,7.2-16.4,13.3-25,18.2c-9,5.199-18.601,9.5-28.4,13.199C632.9,429.6,605.601,416,576,416c-53,0-96,43-96,96
	C480,535.5,488.4,557,502.4,573.699z"/>
<path id="curve0" fill="#002664" d="M576,448c27.601,0,51.101,17.5,60.101,42c22-6,41.899-14,58.899-23.7
	c18.8-10.7,33.8-23.4,43.8-37.3c-1.8-4-2.8-8.4-2.8-13V224c0-6.601,2-12.7,5.4-17.7C699.5,122,612.5,64,512,64
	s-187.5,58-229.4,142.3c3.4,5,5.4,11.1,5.4,17.7v192c0,17.6-14.4,32-32,32h-32c-35.2,0-64-28.7-64-64V256c0-35.3,28.7-64,64-64h30
	C301.1,97.2,398.9,32,512,32c113.101,0,210.9,65.2,258,160h30c35.3,0,64,28.7,64,64v128c0,35.199-28.8,64-64,64h-32
	c-1.101,0-2.3-0.101-3.399-0.2c-12.701,17.6-31.101,33.3-53.9,46.3c-20.5,11.7-44.7,21.3-71.5,28.1C634.3,552.699,607.9,576,576,576
	c-35.3,0-64-28.7-64-64C512,476.699,540.7,448,576,448z"/>
</svg>
